<svg class="alien alien-ship-2" width="345" height="314" xmlns="http://www.w3.org/2000/svg" xmlns:xlink="http://www.w3.org/1999/xlink" overflow="hidden"><defs><clipPath id="alien-ship-2-light-damage"><rect x="-6" y="0" width="345" height="314"/></clipPath></defs><g clip-path="url(#alien-ship-2-light-damage)" transform="translate(6 0)"><path class="alien-2-body" d="M2.00007 113.023 29.474 26.3779 51.4531 68.325 61.7558 16.7507 165.47 52.5089 256.82 14.0001 270.557 70.388 300.779 21.5643 331 113.71 243.77 275.31 224.539 159.783 163.409 180.413 98.8456 155.657 93.3508 287 2.00007 113.023Z" stroke="#FFC000" stroke-width="13.75" stroke-miterlimit="8" fill-rule="evenodd"/><rect x="94.9999" y="48.0001" width="126" height="38.9998" fill="#AFABAB"/><path d="M94.9999 48.5C94.9999 21.7142 123.206-6.17469e-15 158-1.23494e-14 192.794-2.46988e-14 221 21.7142 221 48.5 221 75.2858 192.794 96.9999 158 96.9999 123.206 96.9999 94.9999 75.2858 94.9999 48.5Z" fill="#AFABAB" fill-rule="evenodd"/><path d="M94.9999 85.4999C94.9999 74.7304 123.206 66 158 66 192.794 66 221 74.7304 221 85.4999 221 96.2694 192.794 105 158 105 123.206 105 94.9999 96.2694 94.9999 85.4999Z" fill="#AFABAB" fill-rule="evenodd"/><path d="M119.62 95.5001C119.392 92.7413 119.239 89.9753 118.936 87.2237 118.783 85.8339 118.405 84.4755 118.252 83.0856 117.949 80.334 117.796 77.568 117.568 74.8092 117.796 73.4299 116.937 71.1131 118.252 70.6711 120.099 70.0498 121.914 72.0107 123.722 72.7402 125.334 73.3904 126.897 74.159 128.508 74.8092 130.702 75.6941 131.631 75.563 133.978 76.8783 135.173 77.5478 140.469 82.0809 140.816 82.3959 141.774 83.2659 142.458 84.4653 143.551 85.1547 144.348 85.6572 145.374 85.6145 146.286 85.8444 145.108 73.9595 146.527 83.6953 142.867 69.9814 137.828 51.1023 143.996 70.6374 138.081 52.7391 138.537 49.2906 136.005 42.5866 139.448 42.3937 144.266 42.1236 150.028 52.3752 153.807 56.1875 154.839 57.2284 156.086 58.0267 157.226 58.9463 157.454 57.5669 157.714 56.1926 157.91 54.8081 158.17 52.9733 158.18 51.0965 158.594 49.2906 158.87 48.0843 159.505 46.9916 159.961 45.8421 160.645 41.704 161.553 37.5973 162.012 33.4276 162.466 29.3083 160.308 24.3856 162.696 21.0131 164.001 19.1707 166.819 22.8078 168.85 23.7719 171.923 25.2306 175.742 27.0361 178.422 29.2895 178.598 29.4368 178.422 29.7493 178.422 29.9792" stroke="#000000" stroke-width="1.14583" stroke-miterlimit="8" fill="none" fill-rule="evenodd"/></g></svg>