<svg class="alien alien-ship-3" width="345" height="314" xmlns="http://www.w3.org/2000/svg" xmlns:xlink="http://www.w3.org/1999/xlink" overflow="hidden"><defs><clipPath id="alien-ship-2-full-health"><rect x="-6" y="0" width="345" height="314"/></clipPath></defs><g clip-path="url(#alien-ship-2-full-health)" transform="translate(6 0)"><path class="alien-2-body" d="M2.00007 113.023 29.474 26.3779 51.4531 68.325 61.7558 16.7507 165.47 52.5089 256.82 14.0001 270.557 70.388 300.779 21.5643 331 113.71 243.77 275.31 224.539 159.783 163.409 180.413 98.8456 155.657 93.3508 287 2.00007 113.023Z" stroke="#00B050" stroke-width="13.75" stroke-miterlimit="8" fill-rule="evenodd"/><rect x="94.9999" y="48.0001" width="126" height="38.9998" fill="#AFABAB"/><path d="M94.9999 48.5C94.9999 21.7142 123.206-6.17469e-15 158-1.23494e-14 192.794-2.46988e-14 221 21.7142 221 48.5 221 75.2858 192.794 96.9999 158 96.9999 123.206 96.9999 94.9999 75.2858 94.9999 48.5Z" fill="#AFABAB" fill-rule="evenodd"/><path d="M94.9999 85.4999C94.9999 74.7304 123.206 66 158 66 192.794 66 221 74.7304 221 85.4999 221 96.2694 192.794 105 158 105 123.206 105 94.9999 96.2694 94.9999 85.4999Z" fill="#AFABAB" fill-rule="evenodd"/></g></svg>