<svg class="alien alien-ship-0" width="316" height="150" xmlns="http://www.w3.org/2000/svg" xmlns:xlink="http://www.w3.org/1999/xlink" overflow="hidden"><defs><clipPath id="alien-ship-0-heavy-damage"><rect x="0" y="0" width="316" height="150"/></clipPath></defs><g clip-path="url(#alien-ship-0-heavy-damage)"><path class="alien-0-body" d="M0 96.9999C-2.01155e-14 67.7289 70.739 44 158 44 245.261 44 316 67.7289 316 96.9999 316 126.271 245.261 150 158 150 70.739 150-1.00578e-13 126.271 0 96.9999Z" fill="#C00000" fill-rule="evenodd"/><rect x="94.9999" y="48.0001" width="126" height="38.9998" fill="#AFABAB"/><path d="M94.9999 48.5C94.9999 21.7142 123.206-6.17469e-15 158-1.23494e-14 192.794-2.46988e-14 221 21.7142 221 48.5 221 75.2858 192.794 96.9999 158 96.9999 123.206 96.9999 94.9999 75.2858 94.9999 48.5Z" fill="#AFABAB" fill-rule="evenodd"/><path d="M94.9999 85.4999C94.9999 74.7304 123.206 66 158 66 192.794 66 221 74.7304 221 85.4999 221 96.2694 192.794 105 158 105 123.206 105 94.9999 96.2694 94.9999 85.4999Z" fill="#AFABAB" fill-rule="evenodd"/><path d="M181.5 22.4998 170.5 30.8192C169.835 31.3135 169.022 31.6166 168.438 32.2058 167.292 33.3613 166.471 34.9873 165 35.6722 163.323 36.4529 161.333 36.1344 159.5 36.3655 156.979 34.5168 154.654 32.3601 151.938 30.8192 150.919 30.2417 149.634 30.4116 148.5 30.126 147.797 29.9487 147.125 29.6638 146.438 29.4327 138.425 31.4528 144.498 28.993 142.312 46.0715 142.071 47.9614 141.396 49.769 140.938 51.6178 141.167 54.1598 140.93 56.7895 141.625 59.2439 141.892 60.1864 144.447 60.7112 143.688 61.3237 139.351 64.8225 133.056 65.0482 127.875 65.4834 127.418 65.5216 126.958 65.4834 126.5 65.4834" stroke="#000000" stroke-width="1.14583" stroke-miterlimit="8" fill="none" fill-rule="evenodd"/><path d="M249.5 69.4999C250.904 70.0601 256.37 72.1288 257.265 73.0218 257.951 73.7062 257.735 74.9001 257.971 75.8393 255.692 76.9759 253.696 77.6007 252.324 80.0655 251.741 81.1119 251.853 82.4134 251.618 83.5873 253.035 87.8309 252.246 89.7928 255.853 91.3354 256.745 91.7166 257.735 91.8049 258.677 92.0397 257.735 93.2137 256.218 94.1029 255.853 95.5616 255.449 97.1722 256.155 98.8815 256.559 100.492 257.215 103.112 257.633 104.443 260.088 105.423 260.525 105.597 261.03 105.423 261.5 105.423" stroke="#000000" stroke-width="1.14583" stroke-miterlimit="8" fill="none" fill-rule="evenodd"/><path d="M39.9612 80.4999C39.6916 81.1676 38.1559 84.7781 37.8845 85.988 37.5004 87.7015 36.7209 93.3743 36.4999 94.9062 38.5767 95.5923 40.6255 96.3683 42.7303 96.9643 43.8615 97.2848 45.1392 97.1289 46.1916 97.6503 47.0674 98.0842 47.5761 99.0223 48.2684 99.7083 48.7299 103.367 47.9119 107.426 49.6529 110.685 54.7273 120.183 54.4987 108.512 54.4987 112.057" stroke="#000000" stroke-width="1.14583" stroke-miterlimit="8" fill="none" fill-rule="evenodd"/><path d="M279.398 77.5088C275.739 77.0501 272.03 76.8869 268.419 76.1327 266.506 75.7328 264.798 74.6449 262.93 74.0684 261.815 73.7246 260.643 73.6097 259.499 73.3804 257.643 77.5677 256.863 80.2684 254.01 83.7015 252.767 85.1965 251.265 86.4539 249.893 87.83 251.735 79.8259 253.706 79.0237 249.206 72.0042 248.414 70.7689 246.919 70.1693 245.775 69.2519 241.887 69.4813 237.958 70.5493 234.11 69.94 233.1 69.78 233.508 66.5122 232.738 67.1877 230.565 69.0944 227 78.8193 225.876 81.6373 226.105 82.5547 226.104 83.5628 226.562 84.3896 228.295 87.5176 231.542 90.0012 234.796 91.2704 236.97 92.1181 239.355 92.2771 241.658 92.6466 245.076 93.1949 248.52 93.564 251.951 94.0227 250.579 96.087 245.372 100.462 247.834 100.215 252.128 99.7849 254.806 94.942 258.813 93.3346L262.244 91.9585C269.563 94.0227 277.213 95.1478 284.202 98.1512 285.612 98.7573 287.09 100.985 286.26 102.28 283.194 107.063 272.191 109.735 267.733 111.225 248.334 129.899 256.989 123.064 243.031 133.243 237.853 122.86 243.247 134.583 240.286 125.674 235.005 109.787 237.16 119.637 235.483 111.225 236.169 110.078 236.741 108.854 237.541 107.784 238.807 106.092 240.323 104.604 241.658 102.968 242.383 102.08 243.031 101.133 243.717 100.215 244.697 96.2845 245.984 94.9792 237.541 96.775 232.092 97.9341 227.02 100.445 221.759 102.28 209.573 110.68 214.248 107.067 207.349 112.601 207.807 116.729 207.631 120.979 208.721 124.986 209.062 126.238 212.46 126.908 211.466 127.739 207.267 131.248 194.549 132.983 189.508 133.931 187.678 133.243 185.823 132.621 184.019 131.867 183.075 131.473 182.293 130.584 181.274 130.491 174.664 129.888 168.008 130.032 161.375 129.803 160.917 128.656 161.137 126.844 160.002 126.362 153.106 123.436 145.951 122.58 138.731 121.546 141.475 121.087 144.198 120.467 146.965 120.17 150.611 119.778 154.287 119.756 157.944 119.482L174.412 118.105C175.785 117.647 177.138 117.128 178.529 116.729 181.944 115.751 185.577 115.423 188.822 113.977L194.998 111.225C195.684 110.307 196.033 107.959 197.056 108.472 198.099 108.995 196.653 110.778 196.37 111.913 195.489 115.448 194.232 116.261 190.881 119.482 187.137 123.079 181.883 125.344 179.215 129.803 178.529 130.95 178.232 132.452 177.157 133.243 174.682 135.063 171.667 135.995 168.923 137.372 162.29 137.142 155.641 137.194 149.023 136.684 146.698 136.504 144.248 136.353 142.161 135.307 140.851 134.651 140.332 133.014 139.417 131.867 138.959 129.573 138.474 127.285 138.044 124.986 137.788 123.615 138.435 121.741 137.358 120.858 135.51 119.341 132.784 119.482 130.496 118.794 129.581 117.647 129.207 115.187 127.752 115.353 101.606 118.332 105.179 117.346 92.7562 129.803 92.2987 124.986 90.1296 120.025 91.3838 115.353 92.6503 110.636 107.844 111.268 108.538 111.225 107.8 113.445 105.496 120.632 104.421 122.922 103.419 125.058 102.745 127.54 100.99 129.115 98.2417 131.581 94.9862 133.827 91.3838 134.619 85.3476 135.948 79.0325 135.078 72.8568 135.307 68.7397 133.473 63.5499 133.133 60.5055 129.803 57.8357 126.883 57 116.266 58.447 111.913 58.9102 110.52 59.8816 109.129 61.1917 108.472 62.8411 107.645 64.8513 108.014 66.6812 107.784 67.8248 108.014 69.4122 107.537 70.1121 108.472 73.1569 112.543 68.1115 118.228 66.6812 120.858 74.4579 121.087 82.2315 121.546 90.0115 121.546 92.9936 121.546 97.7364 123.597 98.9319 120.858 100.413 117.463 96.0665 114.023 94.8148 110.537 92.3665 103.717 92.8048 100.885 88.6391 94.0227 87.2069 91.6634 84.9794 89.8942 83.1496 87.83 83.3783 88.5181 84.3224 89.3575 83.8358 89.8942 72.6775 102.202 70.9456 102.111 58.447 109.16 57.532 106.867 56.41 104.646 55.7022 102.28 55.0319 100.039 56.5426 96.1386 54.3298 95.3989 52.1816 94.6808 51.5059 99.1127 49.5266 100.215 37.0812 107.149 35.5817 105.731 22.0792 106.408 21.6217 104.803 21.6304 102.981 20.7068 101.592 20.1395 100.738 18.6853 100.941 17.9621 100.215 17.2388 99.4901 17.0471 98.3806 16.5897 97.4631 16.8184 93.3346 15.9035 88.9768 17.2759 85.0777 17.6642 83.975 19.9713 84.8581 20.7068 85.7658 23.1587 88.7919 24.218 92.73 26.1963 96.087 27.1973 97.7857 28.1252 99.6292 29.6272 100.904 32.6601 103.477 35.1059 103.654 38.5476 104.344 41.5211 103.197 44.9895 102.911 47.468 100.904 57.0227 93.1649 56.3819 89.9192 59.1331 79.5731 58.9044 75.4446 58.447 63.0527 58.447 67.1877 58.447 71.7806 57.875 76.5329 59.1331 80.9492 59.4537 82.0736 61.4204 81.408 62.5641 81.6373 67.9862 77.5598 69.105 77.4724 72.8568 71.3161 74.0315 69.3888 74.5941 67.144 75.6016 65.1234 75.9704 64.3837 76.5165 63.7473 76.974 63.0592 78.1176 65.8115 77.52 70.593 80.4049 71.3161 82.7217 71.8969 81.5543 66.6495 82.4634 64.4353 83.1655 62.7254 86.8442 58.7657 85.2082 59.6188 78.0592 63.3463 72.5157 69.767 65.3088 73.3804 62.1066 74.9859 59.2646 77.8397 55.7022 78.1969L48.8404 78.885C34.3069 85.3623 40.8046 83.0915 29.6272 86.4539 25.9675 85.5364 21.867 85.674 18.6482 83.7015 17.2272 82.8307 17.0403 80.5378 17.2759 78.885 17.6793 76.0543 20.2022 73.8864 22.0792 72.0042 23.851 74.6691 24.4313 76.0713 28.2548 77.5088 30.1942 78.2381 32.3719 77.9676 34.4305 78.1969 37.404 77.5088 40.6213 77.5013 43.3509 76.1327 45.5301 75.0401 47.0747 71.4169 48.1542 69.2519 55.2448 74.0684 62.1823 79.1198 69.4259 83.7015 96.6874 100.945 85.9725 90.6607 95.5009 100.215 96.6446 105.949 97.3812 111.781 98.9319 117.417 99.2359 118.523 100.423 119.174 100.99 120.17 102.259 122.396 102.841 125.034 104.421 127.05 105.44 128.351 107.077 129.035 108.538 129.803 111.892 131.564 115.356 133.112 118.831 134.619 130.883 139.845 129.263 139.253 135.986 141.5" stroke="#000000" stroke-width="1.14583" stroke-miterlimit="8" fill="none" fill-rule="evenodd"/><path d="M151.5 91.4999C151.943 83.8266 151.248 75.6475 156.277 69.2392 156.987 68.3339 158.096 67.8479 159.006 67.1522 159.689 71.7899 160.297 76.4396 161.053 81.0652 161.207 82.0084 160.837 84.1224 161.736 83.8478 168.66 81.7302 174.928 77.8188 181.525 74.8044 184.254 70.6305 187.796 66.9025 189.713 62.2827 191.785 57.289 185.412 52.5137 182.889 50.4567 175.099 44.1034 174.752 45.4666 164.465 43.5002 162.646 45.819 160.505 47.9103 159.006 50.4567 156.843 54.1328 159.503 56.4699 162.418 58.8044 167.18 62.619 172.426 65.7609 177.43 69.2392 179.25 68.3116 181.098 67.44 182.889 66.4566 184.057 65.8157 184.979 64.4733 186.301 64.3696 188.171 64.2228 189.941 65.2972 191.76 65.7609 203.077 74.2621 203.129 71.5503 207.455 80.3696 207.557 80.577 207.455 80.8333 207.455 81.0652" stroke="#000000" stroke-width="1.14583" stroke-miterlimit="8" fill="none" fill-rule="evenodd"/><path d="M212.063 98.5002C212.292 94.1233 212.388 89.7374 212.75 85.3696 212.951 82.9441 214.278 79.2253 214.813 77.0766 215.096 75.9372 215.271 74.773 215.5 73.6212 209.378 72.3904 214.291 72.6425 206.563 75.6945 202.043 77.4793 197.553 79.4731 192.813 80.5321 181.739 83.0058 188.656 81.3309 172.188 86.0607 166.188 87.7835 168.924 86.82 163.938 88.825 166.229 84.6785 168.195 80.3322 170.813 76.3856 171.891 74.7593 173.492 73.5465 174.938 72.2391 176.604 70.731 179.215 69.1595 181.125 68.0926 182.021 67.5923 183.055 67.3286 183.875 66.7104 186.739 64.5516 189.375 62.1032 192.125 59.7996 195.42 57.0397 196.737 56.4048 199 52.8888 200.729 50.2021 202.938 47.6729 203.813 44.5958 204.271 42.9833 206.839 39.521 205.188 39.7583 201.023 40.3565 197.95 44.0869 194.188 45.978 191.98 47.0877 189.543 47.6801 187.313 48.7423 185.18 49.7577 183.277 51.2244 181.125 52.1977 178.679 53.3042 176.107 54.1095 173.563 54.9621 164.539 57.9854 166.071 57.4358 157.75 59.1085 153.625 60.9514 149.715 63.3907 145.375 64.6372 144.153 64.988 139.633 66.3444 137.813 66.7104 136.445 66.9854 135.063 67.1712 133.688 67.4015 132.771 67.1712 131.209 67.6203 130.938 66.7104 129.968 63.4607 132.856 56.7142 134.375 54.271 135.317 52.7557 139.477 48.2896 141.25 46.6691 142.813 45.2405 144.568 44.0245 146.063 42.5226 147.328 41.2504 148.181 39.5918 149.5 38.3761 150.953 37.0371 152.829 36.2256 154.313 34.9207 156.507 32.99 157.999 30.2094 160.5 28.701 161.646 28.0099 162.826 27.3729 163.938 26.6277 164.891 25.9889 165.755 25.2238 166.688 24.5545 167.36 24.0716 168.063 23.633 168.75 23.1723 170.433 18.0986 171.15 20.0561 168.063 16.9526 157.227 19.373 162.382 17.7347 147.438 25.2456 145.604 26.167 143.662 26.8958 141.938 28.0099 137.55 30.8453 138.849 31.2549 135.063 33.5385 132.439 35.121 121.852 39.6806 121.313 39.7583L116.5 40.4493C117.188 36.7636 117.736 33.0488 118.563 29.392 118.884 27.9714 118.913 26.2758 119.938 25.2456 121.827 23.3461 124.589 22.5893 126.813 21.0991 127.5 20.6384 128.136 20.0884 128.875 19.7169 129.979 19.1622 131.167 18.7955 132.313 18.3348 133 17.6437 133.576 16.8176 134.375 16.2615 139.944 12.386 139.237 12.7894 143.313 11.4239 144 10.7329 144.637 9.98664 145.375 9.3507 146.245 8.60121 148.403 8.39479 148.125 7.27745 147.842 6.13799 145.855 6.62301 144.688 6.58637 138.503 6.39193 132.313 6.58637 126.125 6.58637" stroke="#000000" stroke-width="1.14583" stroke-miterlimit="8" fill="none" fill-rule="evenodd"/></g></svg>