<svg width="316" height="150" xmlns="http://www.w3.org/2000/svg" xmlns:xlink="http://www.w3.org/1999/xlink" overflow="hidden"><defs><clipPath id="clip0"><rect x="0" y="0" width="316" height="150"/></clipPath></defs><g clip-path="url(#clip0)"><path d="M0 96.9999C-2.01155e-14 67.7289 70.739 44 158 44 245.261 44 316 67.7289 316 96.9999 316 126.271 245.261 150 158 150 70.739 150-1.00578e-13 126.271 0 96.9999Z" fill="#C00000" fill-rule="evenodd"/><rect x="94.9999" y="48.0001" width="126" height="38.9998" fill="#AFABAB"/><path d="M94.9999 48.5C94.9999 21.7142 123.206-6.17469e-15 158-1.23494e-14 192.794-2.46988e-14 221 21.7142 221 48.5 221 75.2858 192.794 96.9999 158 96.9999 123.206 96.9999 94.9999 75.2858 94.9999 48.5Z" fill="#AFABAB" fill-rule="evenodd"/><path d="M94.9999 85.4999C94.9999 74.7304 123.206 66 158 66 192.794 66 221 74.7304 221 85.4999 221 96.2694 192.794 105 158 105 123.206 105 94.9999 96.2694 94.9999 85.4999Z" fill="#AFABAB" fill-rule="evenodd"/></g></svg>