<svg width="316" height="150" xmlns="http://www.w3.org/2000/svg" xmlns:xlink="http://www.w3.org/1999/xlink" overflow="hidden"><defs><clipPath id="clip0"><rect x="0" y="0" width="316" height="150"/></clipPath></defs><g clip-path="url(#clip0)"><path d="M0 96.9999C-2.01155e-14 67.7289 70.739 44 158 44 245.261 44 316 67.7289 316 96.9999 316 126.271 245.261 150 158 150 70.739 150-1.00578e-13 126.271 0 96.9999Z" fill="#C00000" fill-rule="evenodd"/><rect x="94.9999" y="48.0001" width="126" height="38.9998" fill="#AFABAB"/><path d="M94.9999 48.5C94.9999 21.7142 123.206-6.17469e-15 158-1.23494e-14 192.794-2.46988e-14 221 21.7142 221 48.5 221 75.2858 192.794 96.9999 158 96.9999 123.206 96.9999 94.9999 75.2858 94.9999 48.5Z" fill="#AFABAB" fill-rule="evenodd"/><path d="M94.9999 85.4999C94.9999 74.7304 123.206 66 158 66 192.794 66 221 74.7304 221 85.4999 221 96.2694 192.794 105 158 105 123.206 105 94.9999 96.2694 94.9999 85.4999Z" fill="#AFABAB" fill-rule="evenodd"/><path d="M181.5 22.4998 170.5 30.8192C169.835 31.3135 169.022 31.6166 168.438 32.2058 167.292 33.3613 166.471 34.9873 165 35.6722 163.323 36.4529 161.333 36.1344 159.5 36.3655 156.979 34.5168 154.654 32.3601 151.938 30.8192 150.919 30.2417 149.634 30.4116 148.5 30.126 147.797 29.9487 147.125 29.6638 146.438 29.4327 138.425 31.4528 144.498 28.993 142.312 46.0715 142.071 47.9614 141.396 49.769 140.938 51.6178 141.167 54.1598 140.93 56.7895 141.625 59.2439 141.892 60.1864 144.447 60.7112 143.688 61.3237 139.351 64.8225 133.056 65.0482 127.875 65.4834 127.418 65.5216 126.958 65.4834 126.5 65.4834" stroke="#000000" stroke-width="1.14583" stroke-miterlimit="8" fill="none" fill-rule="evenodd"/><path d="M249.5 69.4999C250.904 70.0601 256.37 72.1288 257.265 73.0218 257.951 73.7062 257.735 74.9001 257.971 75.8393 255.692 76.9759 253.696 77.6007 252.324 80.0655 251.741 81.1119 251.853 82.4134 251.618 83.5873 253.035 87.8309 252.246 89.7928 255.853 91.3354 256.745 91.7166 257.735 91.8049 258.677 92.0397 257.735 93.2137 256.218 94.1029 255.853 95.5616 255.449 97.1722 256.155 98.8815 256.559 100.492 257.215 103.112 257.633 104.443 260.088 105.423 260.525 105.597 261.03 105.423 261.5 105.423" stroke="#000000" stroke-width="1.14583" stroke-miterlimit="8" fill="none" fill-rule="evenodd"/><path d="M39.9612 80.4999C39.6916 81.1676 38.1559 84.7781 37.8845 85.988 37.5004 87.7015 36.7209 93.3743 36.4999 94.9062 38.5767 95.5923 40.6255 96.3683 42.7303 96.9643 43.8615 97.2848 45.1392 97.1289 46.1916 97.6503 47.0674 98.0842 47.5761 99.0223 48.2684 99.7083 48.7299 103.367 47.9119 107.426 49.6529 110.685 54.7273 120.183 54.4987 108.512 54.4987 112.057" stroke="#000000" stroke-width="1.14583" stroke-miterlimit="8" fill="none" fill-rule="evenodd"/></g></svg>