<svg width="345" height="314" xmlns="http://www.w3.org/2000/svg" xmlns:xlink="http://www.w3.org/1999/xlink" overflow="hidden"><defs><clipPath id="clip0"><rect x="-6" y="0" width="345" height="314"/></clipPath></defs><g clip-path="url(#clip0)" transform="translate(6 0)"><path d="M2.00007 113.023 29.474 26.3779 51.4531 68.325 61.7558 16.7507 165.47 52.5089 256.82 14.0001 270.557 70.388 300.779 21.5643 331 113.71 243.77 275.31 224.539 159.783 163.409 180.413 98.8456 155.657 93.3508 287 2.00007 113.023Z" stroke="#C00000" stroke-width="13.75" stroke-miterlimit="8" fill-rule="evenodd"/><rect x="94.9999" y="48.0001" width="126" height="38.9998" fill="#AFABAB"/><path d="M94.9999 48.5C94.9999 21.7142 123.206-6.17469e-15 158-1.23494e-14 192.794-2.46988e-14 221 21.7142 221 48.5 221 75.2858 192.794 96.9999 158 96.9999 123.206 96.9999 94.9999 75.2858 94.9999 48.5Z" fill="#AFABAB" fill-rule="evenodd"/><path d="M94.9999 85.4999C94.9999 74.7304 123.206 66 158 66 192.794 66 221 74.7304 221 85.4999 221 96.2694 192.794 105 158 105 123.206 105 94.9999 96.2694 94.9999 85.4999Z" fill="#AFABAB" fill-rule="evenodd"/><path d="M119.62 95.5001C119.392 92.7413 119.239 89.9753 118.936 87.2237 118.783 85.8339 118.405 84.4755 118.252 83.0856 117.949 80.334 117.796 77.568 117.568 74.8092 117.796 73.4299 116.937 71.1131 118.252 70.6711 120.099 70.0498 121.914 72.0107 123.722 72.7402 125.334 73.3904 126.897 74.159 128.508 74.8092 130.702 75.6941 131.631 75.563 133.978 76.8783 135.173 77.5478 140.469 82.0809 140.816 82.3959 141.774 83.2659 142.458 84.4653 143.551 85.1547 144.348 85.6572 145.374 85.6145 146.286 85.8444 145.108 73.9595 146.527 83.6953 142.867 69.9814 137.828 51.1023 143.996 70.6374 138.081 52.7391 138.537 49.2906 136.005 42.5866 139.448 42.3937 144.266 42.1236 150.028 52.3752 153.807 56.1875 154.839 57.2284 156.086 58.0267 157.226 58.9463 157.454 57.5669 157.714 56.1926 157.91 54.8081 158.17 52.9733 158.18 51.0965 158.594 49.2906 158.87 48.0843 159.505 46.9916 159.961 45.8421 160.645 41.704 161.553 37.5973 162.012 33.4276 162.466 29.3083 160.308 24.3856 162.696 21.0131 164.001 19.1707 166.819 22.8078 168.85 23.7719 171.923 25.2306 175.742 27.0361 178.422 29.2895 178.598 29.4368 178.422 29.7493 178.422 29.9792" stroke="#000000" stroke-width="1.14583" stroke-miterlimit="8" fill="none" fill-rule="evenodd"/><path d="M196.298 88.6905C197.904 83.4111 203.922 77.6033 201.116 72.8524 198.779 68.8953 191.945 73.541 187.351 73.541 183.902 73.541 180.469 73.0819 177.028 72.8524 176.569 70.557 174.911 68.1868 175.651 65.9663 177.12 61.557 181.753 58.6692 183.222 54.2599 183.681 52.8827 183.634 51.2134 184.598 50.1282 185.621 48.9773 187.351 48.751 188.728 48.0624 190.104 46.2261 191.925 44.6511 192.857 42.5535 193.297 41.5627 194.571 33.6431 194.922 31.5357 194.42 28.1877 196.7 16.3862 189.416 16.3862 188.18 16.3862 187.122 17.3044 185.975 17.7635 184.598 19.1407 182.977 20.3101 181.845 21.8951 180.653 23.5659 181.104 27.0014 179.092 27.404 175.382 28.1465 171.751 25.5677 168.081 24.6496 158.91 27.0433 147.19 26.3521 145.369 39.1104 145.07 41.2056 148.315 42.2564 150.186 43.2421 152.754 44.5944 155.741 44.9443 158.445 45.9966 159.88 46.5547 161.198 47.3738 162.575 48.0624 163.492 50.1282 164.733 52.0787 165.328 54.2599 167.495 62.2105 170.834 78.3613 170.834 78.3613 171.063 77.4431 170.711 76.0938 171.522 75.6068 175.476 73.233 177.079 74.0702 180.469 74.9182 179.092 77.2136 177.971 79.6825 176.339 81.8044 175.64 82.7142 172.775 84.6817 173.587 83.8702 175.769 81.6865 177.901 79.3857 180.469 77.6727 183.484 75.6611 191.531 73.0718 194.922 71.4752 196.595 70.6872 198.134 69.6389 199.739 68.7207 202.636 48.4333 201.673 64.3237 190.104 76.9841 187.262 80.0938 182.763 81.1157 179.092 83.1816 172.669 81.8044 166.077 81.0575 159.822 79.0499 153.591 77.0502 145.179 72.7573 138.486 69.4093 127.441 73.5537 127.191 74.4534 115.086 75.6068 114.364 75.6755 113.71 75.1478 113.022 74.9182 115.316 71.0161 116.139 65.723 119.904 63.2118 121.664 62.0381 122.066 67.4444 121.281 69.4093 120.429 71.5406 117.61 72.1638 115.775 73.541 114.398 72.1638 112.436 71.1893 111.645 69.4093 110.512 66.8577 110.39 63.9359 110.269 61.146 109.959 54.0199 112.16 49.2075 115.086 42.5535 117.073 38.0368 118.088 36.943 120.592 33.6015 120.701 33.8567 129.58 55.3664 131.604 57.7029 132.518 58.7581 134.357 58.162 135.734 58.3916 139.404 56.0962 143.034 53.7336 146.745 51.5054 147.625 50.9773 148.497 49.9055 149.498 50.1282 150.932 50.447 151.546 52.4178 152.939 52.8827 155.127 53.6121 157.528 53.3417 159.822 53.5713 162.345 52.6531 165.744 52.9376 167.392 50.8168 168.294 49.6569 165.921 48.092 164.639 47.3738 156.471 42.7968 148.169 40.2216 139.175 38.4218 132.852 40.2292 124.718 41.4109 120.592 47.3738 119.424 49.0619 118.757 51.0464 117.839 52.8827 118.956 59.5888 118.254 63.7797 131.604 52.8827 137.186 48.3266 140.322 41.4058 144.681 35.6674 145.598 31.7652 146.677 27.8974 147.434 23.961 147.826 21.9197 149.964 18.725 148.122 17.7635 143.202 15.1955 131.604 15.6976 131.604 15.6976 131.375 14.7795 131.677 12.3818 130.916 12.9432 126.215 16.4094 118.528 25.3382 118.528 25.3382 118.298 26.2563 118.364 27.3054 117.839 28.0926 117.381 28.7813 116.448 28.9887 115.775 29.4699 112.129 32.0754 114.308 31.107 110.957 32.2243 110.269 31.5357 109.816 30.4665 108.892 30.1585 108.204 29.9289 107.431 30.4444 106.828 30.8471 105.337 31.8415 104.075 33.1425 102.698 34.2902 101.086 37.8388 97.4398 44.3417 97.8805 48.751 98.1266 51.2108 99.3387 53.5315 100.633 55.6371 101.235 56.6145 102.469 57.0143 103.386 57.7029 103.837 58.4548 106.612 62.3244 106.139 63.9005 105.535 65.915 100.215 71.7333 99.257 72.8524 98.3394 75.8364 96.4 78.6841 96.5041 81.8044 96.8267 91.4897 98.498 92.0627 103.386 96.9538 102.01 100.397 95.5572 107.501 99.257 107.283 108.085 106.764 137.058 90.0775 146.057 84.5588 146.887 84.0498 147.434 83.1816 148.122 82.493 147.434 87.0837 145.949 91.6242 146.057 96.2652 146.182 101.622 143.992 114.445 148.81 112.103 159.253 107.028 163.034 93.7403 170.145 84.5588 171.292 91.4449 172.802 98.2804 173.587 105.217 174.18 110.468 169.977 124.127 174.275 121.055 182.291 115.326 183.028 103.374 188.039 94.888 189.03 93.2111 190.792 92.1335 192.169 90.7563 194.656 93.6004 212.52 114.52 214.881 114.858 219.794 115.56 210.131 105.974 206.622 102.463 201.301 97.1385 194.692 93.2812 188.728 88.6905 199.51 88.4609 210.31 88.6547 221.075 88.0019 225.48 87.7347 231.031 89.0581 234.151 85.936 236.203 83.8828 228.645 84.0997 225.892 83.1816 222.451 79.7385 218.725 76.559 215.569 72.8524 213.423 70.3322 210.063 64.5891 210.063 64.5891 204.098 68.0321 195.248 81.0807 192.169 74.9182 188.722 68.0198 199.78 60.9707 205.934 56.3257 213.316 50.7532 222.91 48.9805 231.398 45.3079 230.481 44.8489 229.671 43.8895 228.645 43.9307 222.656 44.1704 213.782 46.0786 207.31 47.3738 206.392 47.1442 205.059 47.4876 204.557 46.6852 203.697 45.3087 205.469 41.5981 203.869 41.8649 200.653 42.4013 198.888 46.0808 196.298 48.0624 192.318 51.1075 193.238 50.5493 189.416 51.5054 188.039 48.2919 186.346 45.1966 185.287 41.8649 184.726 40.1012 184.851 38.1894 184.598 36.356 183.933 31.5325 183.755 26.6084 182.534 21.8951 181.34 17.287 179.016 17.7552 175.651 15.6976 164.554 8.91237 171.378 10.6319 161.198 9.50013 159.363 13.6318 157.835 17.9142 155.692 21.8951 153.006 26.8868 149.809 31.5874 146.745 36.356 141.901 43.8957 144.466 38.2704 141.928 44.6193 144.487 54.861 145.289 66.7239 157.069 72.1638 164.407 75.5523 173.128 74.0001 181.157 74.9182 182.304 74.4592 185.723 73.0295 184.598 73.541 178.428 76.3475 171.859 78.3656 166.016 81.8044 163.914 83.0413 162.977 85.6443 161.198 87.3132 157.636 90.6544 152.277 94.4228 147.434 95.5766 145.202 96.1083 142.845 95.5766 140.551 95.5766" stroke="#000000" stroke-width="1.14583" stroke-miterlimit="8" fill="none" fill-rule="evenodd"/></g></svg>