<svg class="player player-ship-1" width="357" height="235" xmlns="http://www.w3.org/2000/svg" xmlns:xlink="http://www.w3.org/1999/xlink" overflow="hidden"><defs><clipPath id="player-ship-1"><rect x="-1" y="-2" width="357" height="235"/></clipPath></defs><g clip-path="url(#player-ship-1)" transform="translate(1 2)"><path d="M0 0 44.5 0C69.0767-2.67358e-15 89 4.701 89 10.5 89 16.299 69.0767 21 44.5 21L0 21Z" fill="#FFFFFF" fill-rule="evenodd" transform="matrix(-1 1.22465e-16 1.22465e-16 1 298 198)"/><path d="M0 0 45 0C69.8529-2.67358e-15 90.0001 4.701 90.0001 10.5 90.0001 16.299 69.8529 21 45 21L0 21Z" fill="#FFFFFF" fill-rule="evenodd" transform="matrix(-1 1.22465e-16 1.22465e-16 1 297 11)"/><path class="player-ship-wings" d="M312 231 101 115.5 312 1.52588e-05Z" stroke="#000000" stroke-width="2.29167" stroke-miterlimit="8" fill="#E2F0D9" fill-rule="evenodd"/><path d="M0 0 73.5629 0.000360892" stroke="#FFFFFF" stroke-width="2.29167" stroke-miterlimit="8" fill="none" fill-rule="evenodd" transform="matrix(-1 0 0 1 95.5629 77)"/><path d="M0 0 73.5629 0.000360892" stroke="#FFFFFF" stroke-width="2.29167" stroke-miterlimit="8" fill="none" fill-rule="evenodd" transform="matrix(-1 0 0 1 95.5629 138)"/><path class="player-ship-body" d="M355 151 177.5 151C79.4695 151 0 131.524 0 107.5 0 83.4755 79.4695 63.9999 177.5 63.9999L355 63.9999Z" stroke="#000000" stroke-width="2.29167" stroke-miterlimit="8" fill="#A9D18E" fill-rule="evenodd"/><path d="M85.539 131.814C70.7077 122.143 65.979 103.117 74.977 89.3176 79.3946 82.5428 86.5797 77.9865 94.8856 76.6929L96.4636 83.5395C83.3143 85.3059 75.0579 97.1646 78.0224 110.027 79.4976 116.427 83.6004 122.183 89.3671 125.944Z" stroke="#000000" stroke-width="4.58333" stroke-miterlimit="8" fill-rule="evenodd"/></g></svg>