<svg id="light-damage-player" class="player-ship-item player-ship-damage" width="360" height="240" xmlns="http://www.w3.org/2000/svg" xmlns:xlink="http://www.w3.org/1999/xlink" overflow="hidden"><defs><clipPath id="player-light-damage"><rect x="-2" y="-4" width="360" height="240"/></clipPath></defs><g clip-path="url(#player-light-damage)" transform="translate(2 4)"><path d="M312.5 231.5 101.5 116 312.5 0.499847Z" stroke="#000000" stroke-width="4.58333" stroke-miterlimit="8" stroke-opacity="0" fill="#000000" fill-rule="evenodd" fill-opacity="0"/><path d="M0 0 73.5629 0.000360892" stroke="#000000" stroke-width="2.29167" stroke-miterlimit="8" stroke-opacity="0" fill="none" fill-rule="evenodd" transform="matrix(-1 0 0 1 95.5629 77)"/><path d="M0 0 73.5629 0.000360892" stroke="#000000" stroke-width="2.29167" stroke-miterlimit="8" stroke-opacity="0" fill="none" fill-rule="evenodd" transform="matrix(-1 0 0 1 95.5629 138)"/><path d="M355.5 151.5 178 151.5C79.9693 151.5 0.499847 132.024 0.499847 108 0.499847 83.9757 79.9693 64.5001 178 64.5001L355.5 64.5001Z" stroke="#000000" stroke-width="4.58333" stroke-miterlimit="8" stroke-opacity="0" fill="#000000" fill-rule="evenodd" fill-opacity="0"/><path d="M85.539 131.814C70.7077 122.143 65.979 103.117 74.977 89.3176 79.3946 82.5428 86.5797 77.9865 94.8856 76.6929L96.4636 83.5395C83.3143 85.3059 75.0579 97.1646 78.0224 110.027 79.4976 116.427 83.6004 122.183 89.3671 125.944Z" stroke="#000000" stroke-width="4.58333" stroke-miterlimit="8" stroke-opacity="0" fill="#000000" fill-rule="evenodd" fill-opacity="0"/><path d="M171.5 129.5C185.89 117.799 162.336 137.334 178.368 122.519 182.099 119.072 185.849 115.588 190.044 112.745 195.117 109.308 193.174 111.295 196.225 107.16 196.683 108.324 197.209 109.462 197.599 110.651 197.897 111.561 197.618 112.765 198.286 113.443 198.953 114.122 200.117 113.909 201.033 114.142 203.093 113.211 205.198 112.374 207.214 111.349 212.046 108.893 216.868 105.87 220.951 102.274 235.789 89.2018 213.642 106.449 226.445 96.6887 227.361 98.0849 228.454 99.3763 229.192 100.877 232.098 106.784 230.244 107.754 235.374 110.651 236.199 111.117 237.205 111.116 238.121 111.349 242.471 109.022 246.936 106.906 251.17 104.368 268.197 94.1615 258.979 96.2965 269.028 94.5943 269.485 96.2233 270.074 97.8199 270.401 99.4811 270.992 102.482 270.004 106.081 271.775 108.557 272.626 109.747 274.522 107.626 275.896 107.16 279.101 104.833 282.375 102.602 285.511 100.179 295.396 92.5436 289.524 95.3364 296.5 92.5" stroke="#000000" stroke-width="1.14583" stroke-miterlimit="8" fill="none" fill-rule="evenodd"/><path d="M250.5 50.5C252.565 50.2752 254.624 49.9881 256.695 49.8256 260.361 49.5382 264.096 49.8316 267.708 49.1512 270.135 48.6938 272.297 47.3528 274.592 46.4535 272.416 45.1744 270.701 44.049 268.397 43.0815 267.73 42.8014 267.02 42.6319 266.332 42.407 266.791 41.283 266.649 39.6577 267.708 39.035 269.295 38.1025 271.384 38.6169 273.215 38.3606 276.202 37.9425 279.18 37.4613 282.163 37.0117 282.852 36.5621 284.228 36.4736 284.228 35.6629 284.228 34.7091 282.786 34.3725 282.163 33.6396 281.633 33.0169 281.245 32.2908 280.787 31.6164 282.393 30.0428 283.749 28.1788 285.605 26.8955 293.104 21.709 292.488 26.4427 292.488 21.5002" stroke="#000000" stroke-width="1.14583" stroke-miterlimit="8" fill="none" fill-rule="evenodd"/><path d="M254.513 178.359C254.154 176.948 260.842 177.338 263.126 179.064 264.843 180.362 263.318 183.347 263.844 185.412 264.053 186.234 264.929 186.753 265.279 187.528 267.294 191.982 254.872 179.769 254.513 178.359Z" stroke="#000000" stroke-width="1.14583" stroke-miterlimit="8" fill="none" fill-rule="evenodd"/></g></svg>