<svg class="alien alien-ship-1" width="330" height="152" xmlns="http://www.w3.org/2000/svg" xmlns:xlink="http://www.w3.org/1999/xlink" overflow="hidden"><defs><clipPath id="alien-ship-1-light-damage"><rect x="-7" y="0" width="330" height="152"/></clipPath></defs><g clip-path="url(#alien-ship-1-light-damage)" transform="translate(7 0)"><path class="alien-1-body" d="M-0.000345582 80.6219 75.041 77.7711 60.35 54.1219 126.312 65.8873 158 44 189.688 65.8873 255.65 54.1219 240.959 77.7711 316 80.6219 260.542 96.9999 316 113.378 240.959 116.229 255.65 139.878 189.688 128.113 158 150 126.312 128.113 60.35 139.878 75.041 116.229-0.000345582 113.378 55.4576 96.9999Z" stroke="#6C5E08" stroke-width="2.29167" stroke-miterlimit="8" fill="#BBA105" fill-rule="evenodd"/><rect x="94.9999" y="48.0001" width="126" height="38.9998" fill="#AFABAB"/><path d="M94.9999 48.5C94.9999 21.7142 123.206-6.17469e-15 158-1.23494e-14 192.794-2.46988e-14 221 21.7142 221 48.5 221 75.2858 192.794 96.9999 158 96.9999 123.206 96.9999 94.9999 75.2858 94.9999 48.5Z" fill="#AFABAB" fill-rule="evenodd"/><path d="M94.9999 85.4999C94.9999 74.7304 123.206 66 158 66 192.794 66 221 74.7304 221 85.4999 221 96.2694 192.794 105 158 105 123.206 105 94.9999 96.2694 94.9999 85.4999Z" fill="#AFABAB" fill-rule="evenodd"/><path d="M181.5 22.4998 170.5 30.8192C169.835 31.3135 169.022 31.6166 168.438 32.2058 167.292 33.3613 166.471 34.9873 165 35.6722 163.323 36.4529 161.333 36.1344 159.5 36.3655 156.979 34.5168 154.654 32.3601 151.938 30.8192 150.919 30.2417 149.634 30.4116 148.5 30.126 147.797 29.9487 147.125 29.6638 146.438 29.4327 138.425 31.4528 144.498 28.993 142.312 46.0715 142.071 47.9614 141.396 49.769 140.938 51.6178 141.167 54.1598 140.93 56.7895 141.625 59.2439 141.892 60.1864 144.447 60.7112 143.688 61.3237 139.351 64.8225 133.056 65.0482 127.875 65.4834 127.418 65.5216 126.958 65.4834 126.5 65.4834" stroke="#000000" stroke-width="1.14583" stroke-miterlimit="8" fill="none" fill-rule="evenodd"/><path d="M226.5 68.4999C227.904 69.0445 233.37 71.0558 234.265 71.9239 234.951 72.5893 234.735 73.7501 234.971 74.6631 232.692 75.7682 230.696 76.3757 229.324 78.7719 228.741 79.7893 228.853 81.0546 228.618 82.196 230.035 86.3217 229.246 88.229 232.853 89.7288 233.745 90.0994 234.735 90.1853 235.677 90.4136 234.735 91.5549 233.218 92.4195 232.853 93.8376 232.449 95.4035 233.155 97.0653 233.559 98.6312 234.215 101.178 234.633 102.472 237.088 103.425 237.525 103.595 238.029 103.425 238.5 103.425" stroke="#000000" stroke-width="1.14583" stroke-miterlimit="8" fill="none" fill-rule="evenodd"/><path d="M80.9611 86.5001C80.6915 87.1678 79.1558 90.7783 78.8844 91.9882 78.5003 93.7017 77.7208 99.3745 77.4998 100.906 79.5766 101.592 81.6254 102.368 83.7302 102.964 84.8614 103.285 86.1391 103.129 87.1915 103.65 88.0673 104.084 88.576 105.023 89.2683 105.709 89.7298 109.367 88.9118 113.426 90.6528 116.685 95.7272 126.183 95.4986 114.512 95.4986 118.057" stroke="#000000" stroke-width="1.14583" stroke-miterlimit="8" fill="none" fill-rule="evenodd"/></g></svg>