<svg class="alien alien-ship-0" width="316" height="150" xmlns="http://www.w3.org/2000/svg" xmlns:xlink="http://www.w3.org/1999/xlink" overflow="hidden"><defs><clipPath id="alien-ship-0-full-health"><rect x="0" y="0" width="316" height="150"/></clipPath></defs><g clip-path="url(#alien-ship-0-full-health)"><path class="alien-0-body" d="M0 96.9999C-2.01155e-14 67.7289 70.739 44 158 44 245.261 44 316 67.7289 316 96.9999 316 126.271 245.261 150 158 150 70.739 150-1.00578e-13 126.271 0 96.9999Z" fill="#DBDBDB" fill-rule="evenodd"/><path d="M95.5001 85.9999C95.5001 75.2303 123.706 66.4998 158.5 66.4998 193.294 66.4998 221.5 75.2303 221.5 85.9999 221.5 96.7695 193.294 105.5 158.5 105.5 123.706 105.5 95.5001 96.7695 95.5001 85.9999Z" stroke="#000000" stroke-width="4.58333" stroke-miterlimit="8" fill="#AFABAB" fill-rule="evenodd"/><rect x="94.9999" y="48.0001" width="126" height="38.9998" fill="#AFABAB"/><path d="M94.9999 48.5C94.9999 21.7142 123.206-6.17469e-15 158-1.23494e-14 192.794-2.46988e-14 221 21.7142 221 48.5 221 75.2858 192.794 96.9999 158 96.9999 123.206 96.9999 94.9999 75.2858 94.9999 48.5Z" fill="#AFABAB" fill-rule="evenodd"/></g></svg>