<svg class="alien alien-ship-1" width="330" height="152" xmlns="http://www.w3.org/2000/svg" xmlns:xlink="http://www.w3.org/1999/xlink" overflow="hidden"><defs><clipPath id="alien-ship-1-heavy-damage"><rect x="-7" y="0" width="330" height="152"/></clipPath></defs><g clip-path="url(#alien-ship-1-heavy-damage)" transform="translate(7 0)"><path class="alien-1-body" d="M-0.000345582 80.6219 75.041 77.7711 60.35 54.1219 126.312 65.8873 158 44 189.688 65.8873 255.65 54.1219 240.959 77.7711 316 80.6219 260.542 96.9999 316 113.378 240.959 116.229 255.65 139.878 189.688 128.113 158 150 126.312 128.113 60.35 139.878 75.041 116.229-0.000345582 113.378 55.4576 96.9999Z" stroke="#6C5E08" stroke-width="2.29167" stroke-miterlimit="8" fill="#BBA105" fill-rule="evenodd"/><rect x="94.9999" y="48.0001" width="126" height="38.9998" fill="#AFABAB"/><path d="M94.9999 48.5C94.9999 21.7142 123.206-6.17469e-15 158-1.23494e-14 192.794-2.46988e-14 221 21.7142 221 48.5 221 75.2858 192.794 96.9999 158 96.9999 123.206 96.9999 94.9999 75.2858 94.9999 48.5Z" fill="#AFABAB" fill-rule="evenodd"/><path d="M94.9999 85.4999C94.9999 74.7304 123.206 66 158 66 192.794 66 221 74.7304 221 85.4999 221 96.2694 192.794 105 158 105 123.206 105 94.9999 96.2694 94.9999 85.4999Z" fill="#AFABAB" fill-rule="evenodd"/><path d="M181.5 22.4998 170.5 30.8192C169.835 31.3135 169.022 31.6166 168.438 32.2058 167.292 33.3613 166.471 34.9873 165 35.6722 163.323 36.4529 161.333 36.1344 159.5 36.3655 156.979 34.5168 154.654 32.3601 151.938 30.8192 150.919 30.2417 149.634 30.4116 148.5 30.126 147.797 29.9487 147.125 29.6638 146.438 29.4327 138.425 31.4528 144.498 28.993 142.312 46.0715 142.071 47.9614 141.396 49.769 140.938 51.6178 141.167 54.1598 140.93 56.7895 141.625 59.2439 141.892 60.1864 144.447 60.7112 143.688 61.3237 139.351 64.8225 133.056 65.0482 127.875 65.4834 127.418 65.5216 126.958 65.4834 126.5 65.4834" stroke="#000000" stroke-width="1.14583" stroke-miterlimit="8" fill="none" fill-rule="evenodd"/><path d="M226.5 68.4999C227.904 69.0445 233.37 71.0558 234.265 71.9239 234.951 72.5893 234.735 73.7501 234.971 74.6631 232.692 75.7682 230.696 76.3757 229.324 78.7719 228.741 79.7893 228.853 81.0546 228.618 82.196 230.035 86.3217 229.246 88.229 232.853 89.7288 233.745 90.0994 234.735 90.1853 235.677 90.4136 234.735 91.5549 233.218 92.4195 232.853 93.8376 232.449 95.4035 233.155 97.0653 233.559 98.6312 234.215 101.178 234.633 102.472 237.088 103.425 237.525 103.595 238.029 103.425 238.5 103.425" stroke="#000000" stroke-width="1.14583" stroke-miterlimit="8" fill="none" fill-rule="evenodd"/><path d="M80.9611 86.5001C80.6915 87.1678 79.1558 90.7783 78.8844 91.9882 78.5003 93.7017 77.7208 99.3745 77.4998 100.906 79.5766 101.592 81.6254 102.368 83.7302 102.964 84.8614 103.285 86.1391 103.129 87.1915 103.65 88.0673 104.084 88.576 105.023 89.2683 105.709 89.7298 109.367 88.9118 113.426 90.6528 116.685 95.7272 126.183 95.4986 114.512 95.4986 118.057" stroke="#000000" stroke-width="1.14583" stroke-miterlimit="8" fill="none" fill-rule="evenodd"/><path d="M152.5 140.5C153.646 139.581 155.008 138.881 155.938 137.741 157.108 136.307 157.719 134.492 158.688 132.914 159.554 131.502 160.417 130.08 161.438 128.776 162.943 126.854 164.604 125.06 166.25 123.259 167.126 122.3 168.257 121.565 169 120.5 175.165 111.665 167.005 120.433 173.813 113.603 175.188 113.833 177.012 113.248 177.938 114.293 179.193 115.71 177.426 119.705 179.313 119.81 183.043 120.018 188.64 116.101 192.375 113.603 192.604 114.983 191.801 118.337 193.063 117.741 197.471 115.66 204.063 108.086 204.063 108.086 205.208 109.465 206.481 110.748 207.5 112.224 208.552 113.748 209.067 115.628 210.25 117.052 211.396 118.431 213.037 119.307 214.375 120.5 217.465 123.255 215.132 122.132 218.5 123.259 221.25 122.799 224.172 120.815 226.75 121.879 228.932 122.78 227.838 127.872 230.188 128.086 232.75 128.32 235.847 118.465 236.375 117.052 235.917 115.213 236.443 112.759 235 111.534 233.005 109.841 229.973 110.101 227.438 109.465 224.471 108.721 221.466 108.14 218.5 107.396 220.104 106.477 221.66 105.467 223.313 104.638 228.321 102.126 228.967 102.058 233.625 100.5 241.754 101.665 235.937 99.5351 241.188 106.017 243.027 108.288 247.375 112.224 247.375 112.224 248.063 111.994 249.016 112.126 249.438 111.534 250.28 110.351 249.788 108.425 250.813 107.396L251.5 106.707" stroke="#000000" stroke-width="1.14583" stroke-miterlimit="8" fill="none" fill-rule="evenodd"/><path d="M109.953 119.654C111.099 118.5 112.043 117.098 113.392 116.192 118.888 112.504 118.412 113.518 122.333 112.039 123.49 111.602 124.626 111.115 125.772 110.654 126.406 113.842 126.221 114.928 128.524 117.577 129.279 118.445 130.358 118.962 131.275 119.654L136.777 118.269C137.917 118.005 139.39 116.745 140.217 117.577 143.671 121.055 141.629 125.666 146.407 127.269 148.16 127.858 150.075 127.731 151.909 127.962 153.285 129.808 155.587 131.237 156.036 133.5 156.564 136.158 156.517 137.502 158.1 139.731 158.665 140.528 159.293 141.37 160.163 141.808 161.209 142.334 162.456 142.269 163.602 142.5 165.665 141.808 168.751 142.345 169.792 140.423 170.73 138.692 168.539 136.68 167.729 134.885 166.922 133.099 163.498 129.568 162.914 128.654 153.122 113.323 165.043 129.664 158.1 120.346 157.641 118.962 157.106 117.601 156.724 116.192 156.416 115.057 157.189 112.538 156.036 112.731 154.27 113.027 154.287 116.289 152.597 116.885 149.344 118.031 145.719 117.346 142.28 117.577 132.067 123.745 144.355 116.781 136.09 120.346 135.33 120.674 134.744 121.318 134.026 121.731 131.229 123.34 131.533 123.05 128.524 123.808L124.397 122.423 122.333 121.731C118.366 117.738 119.792 119.757 116.831 113.423 115.869 111.367 114.948 109.29 114.08 107.192 113.801 106.519 113.845 105.685 113.392 105.115 112.876 104.466 112.016 104.192 111.328 103.731 110.641 104.192 109.983 104.703 109.265 105.115 108.375 105.628 107.239 105.77 106.514 106.5 105.789 107.23 105.707 108.411 105.138 109.269 104.324 110.499 103.304 111.577 102.387 112.731 101.914 115.11 101.659 116.68 101.011 118.962 100.812 119.663 100.553 120.346 100.324 121.039 100.094 122.654 100.101 124.322 99.6357 125.885 99.4686 126.446 96.1985 130.729 96.1967 130.731 95.6396 131.198 94.7669 131.069 94.1332 131.423 92.6879 132.231 91.382 133.269 90.0064 134.192 89.3186 134.654 88.7582 135.44 87.943 135.577 82.8835 136.426 85.169 135.929 81.0649 136.962 79.6892 136.731 77.997 137.183 76.938 136.269 76.0505 135.504 76.2502 133.985 76.2502 132.808 76.2502 130.564 77.8829 128.266 79.0014 126.577 79.6373 125.617 80.0395 124.324 81.0649 123.808 82.9553 122.856 85.2044 122.939 87.2551 122.423 87.9585 122.246 88.6152 121.908 89.3186 121.731 91.3694 121.215 93.4494 120.825 95.5089 120.346 96.4299 120.132 97.343 119.885 98.2601 119.654 99.865 118.731 102.604 118.684 103.075 116.885 104.83 110.171 102.122 108.895 101.011 104.423 100.728 103.282 100.659 102.089 100.324 100.962 99.9686 99.7714 99.4064 98.6539 98.9479 97.5001 97.1138 100.269 96.6354 104.932 93.4454 105.808 91.347 106.384 93.557 99.577 91.382 99.577 88.3788 99.577 84.2461 109.096 83.1283 111.346 81.7527 111.115 80.2489 111.282 79.0014 110.654 75.8859 109.086 76.0877 107.332 75.5624 104.423 75.3129 103.042 75.1038 101.654 74.8746 100.269 73.2805 102.943 72.3013 104.936 70.0599 107.192 69.4754 107.781 68.6843 108.115 67.9965 108.577 67.3087 108.346 66.6118 108.141 65.933 107.885 64.7769 107.448 63.7212 106.363 62.494 106.5 59.3947 106.847 56.5442 108.384 53.5525 109.269 49.2592 110.54 48.4244 110.161 42.5475 110.654 40.9426 110.192 36.4294 110.319 37.7328 109.269 39.9107 107.515 43.261 108.481 45.9866 107.885 48.541 107.326 51.0164 106.446 53.5525 105.808 56.7034 105.015 59.1528 104.844 62.494 104.423 63.8696 102.346 65.5117 100.425 66.6209 98.1924 67.0296 97.3693 68.2864 92.1793 68.6843 90.577 68.455 89.8847 68.7099 88.6305 67.9965 88.5001 65.7294 88.0851 63.4122 89.4123 61.1184 89.1924 58.5159 88.9431 56.0885 87.7536 53.5525 87.1155 52.4184 86.8302 51.2637 86.6336 50.1134 86.4232 48.7414 86.172 44.6413 85.3616 45.9866 85.7308 49.8495 86.7913 53.7233 87.8779 57.6793 88.5001 61.0848 89.0358 64.5574 88.9616 67.9965 89.1924 68.6843 89.6539 69.8805 89.7648 70.0599 90.577 70.8571 94.1883 67.8777 99.343 70.7477 101.654 73.0123 103.478 72.3212 96.0137 73.499 93.3462 74.1149 91.9514 77.1799 87.9448 78.3136 86.4232 79.6892 87.8078 80.8952 89.3875 82.4405 90.577 84.8151 92.4046 90.0064 95.4232 90.0064 95.4232 89.5479 88.9616 90.006 82.3671 88.6308 76.0385 88.317 74.595 86.2298 74.3141 85.1917 73.2693 84.6072 72.6809 84.2967 71.8694 83.8161 71.1924 83.15 70.2533 82.4405 69.3462 81.7527 68.4231 81.5234 67.5 81.6144 66.428 81.0649 65.6539 79.4741 63.4123 78.3003 63.7688 76.2502 62.8847 75.3078 62.478 74.416 61.9616 73.499 61.5 74.1232 64.327 74.0662 67.6094 76.2502 69.8077 76.8347 70.3961 77.6258 70.7308 78.3136 71.1924 78.7722 72.1154 79.3293 72.9953 79.6892 73.9616 80.021 74.8523 80.203 75.7958 80.3771 76.7308 80.8912 79.4902 81.2941 82.2693 81.7527 85.0385 81.9819 88.9616 81.6111 92.9676 82.4405 96.8078 82.638 97.7229 86.4114 102.542 87.2551 103.731 89.9515 107.53 89.2085 107.774 94.1332 112.731 95.528 114.135 97.4885 114.857 98.9479 116.192 100.034 117.186 100.602 118.672 101.699 119.654 104.237 121.925 106.765 122.199 109.953 123.116 113.85 122.192 118.146 122.304 121.646 120.346 122.865 119.665 120.939 116.192 122.333 116.192 123.872 116.192 123.515 119.078 124.397 120.346 125.141 121.416 126.231 122.192 127.148 123.116 128.065 122.885 129.313 123.169 129.899 122.423 133.807 117.455 140.217 106.5 140.217 106.5 141.134 107.885 141.995 109.308 142.968 110.654 143.831 111.849 144.941 112.862 145.719 114.116 146.103 114.734 146.023 115.574 146.407 116.192 147.185 117.445 148.29 118.462 149.158 119.654 150.813 121.926 153.973 126.577 153.973 126.577 155.119 124.962 156.445 123.461 157.412 121.731 165.747 106.817 156.989 120.292 161.539 113.423 165.207 114.116 169.372 113.519 172.544 115.5 176.41 117.916 181.485 125.885 181.485 125.885 181.636 125.203 182.731 117.138 184.924 116.192 185.867 115.786 186.758 117.116 187.675 117.577 189.051 119.192 189.912 123.375 191.802 122.423 194.095 121.269 192.455 117.283 193.178 114.808 193.612 113.323 194.553 112.039 195.241 110.654 197.534 112.039 200.031 113.127 202.119 114.808 204.651 116.847 205.869 120.872 208.997 121.731 211.795 122.499 214.447 119.704 217.251 118.962 218.819 118.546 220.461 118.5 222.066 118.269 223.441 118.962 225.18 119.181 226.193 120.346 226.962 121.232 226.545 122.681 226.881 123.808 227.303 125.224 228.415 128.122 229.632 129.346 230.216 129.935 231.007 130.269 231.695 130.731 231.924 131.423 231.87 132.292 232.383 132.808 232.896 133.324 233.817 133.138 234.446 133.5 240.276 136.853 234.53 134.682 239.261 136.269 240.178 136.039 241.407 136.308 242.012 135.577 243.002 134.381 242.889 130.671 242.012 129.346 241.554 128.654 240.637 128.423 239.949 127.962 239.261 126.577 238.739 125.096 237.885 123.808 237.346 122.993 236.361 122.546 235.822 121.731 235.42 121.124 235.599 120.215 235.134 119.654 233.533 117.72 232.377 117.575 230.32 116.885 228.944 115.039 226.749 113.585 226.193 111.346 225.153 107.161 225.804 109.48 224.129 104.423 226.201 96.0817 222.87 108.076 225.505 107.192 227.937 106.377 227.544 102.431 228.944 100.269 230.998 97.0989 233.529 94.2693 235.822 91.2693 236.968 92.6539 238.323 93.8881 239.261 95.4232 240.176 96.9201 240.544 98.6976 241.325 100.269 242.838 103.317 244.534 106.269 246.139 109.269 247.286 108.115 248.679 107.166 249.578 105.808 250.103 105.016 249.675 102.296 250.266 103.039 251.625 104.748 251.549 107.226 252.33 109.269 252.697 110.233 253.247 111.115 253.705 112.039 255.31 111.115 256.785 109.913 258.52 109.269 261.181 108.283 266.773 107.192 266.773 107.192 269.066 107.423 275.956 107.885 273.652 107.885 268.832 107.885 263.947 108.076 259.208 107.192 256.968 106.775 253.077 102.406 251.642 100.962 251.183 99.8078 250.7 98.6638 250.266 97.5001 250.012 96.8169 249.066 95.9392 249.578 95.4232 252.892 92.0877 259.428 92.0557 263.334 91.2693 264.045 91.1261 264.71 90.8078 265.398 90.577 266.086 89.6539 266.528 88.4783 267.461 87.8078 269.765 86.1517 271.484 87.6275 273.652 88.5001 275.237 88.2341 278.149 87.9677 279.842 87.1155 280.581 86.7433 281.217 86.1924 281.905 85.7308 282.364 85.0385 284.108 83.6539 283.281 83.6539 281.944 83.6539 281.175 85.8362 279.842 85.7308 269.207 84.8913 258.749 82.5001 248.203 80.8847 247.286 81.577 246.384 82.2911 245.451 82.9616 244.779 83.4453 244.049 83.8469 243.388 84.3462 242.213 85.233 241.286 86.5038 239.949 87.1155 238.679 87.6962 237.19 87.5323 235.822 87.8078 234.895 87.9942 233.988 88.2693 233.071 88.5001 228.933 80.1706 229.731 84.0937 231.007 71.8847 231.083 71.1589 231.138 70.2751 231.695 69.8077 232.644 69.0122 233.972 68.841 235.134 68.4231 237.183 67.6868 241.325 66.3462 241.325 66.3462 243.712 63.9429 243.388 65.2483 243.388 62.8847" stroke="#000000" stroke-width="1.14583" stroke-miterlimit="8" fill="none" fill-rule="evenodd"/><path d="M111.5 96.5001C121.691 60.6138 110.967 72.9326 122.573 78.6798 124.925 79.8448 127.648 80.0506 130.185 80.736 131.57 80.5075 133.206 80.8724 134.338 80.0506 138.062 77.3461 140.784 72.8736 143.335 69.0843 144.027 71.1405 144.81 73.1689 145.411 75.2528 145.734 76.3729 144.932 78.7957 146.103 78.6798 148.585 78.4341 150.06 75.59 152.331 74.5674 155.188 73.2816 158.329 72.7397 161.328 71.8259 161.559 76.6236 158.591 82.8228 162.02 86.2192 164.339 88.5153 167.314 82.3468 169.633 80.0506 172.871 76.8438 175.631 73.1967 178.63 69.7697 179.091 71.5974 179.663 73.401 180.014 75.2528 180.356 77.0633 178.914 81.2289 180.706 80.736 188.929 78.4737 198.435 64.3437 202.852 58.8033 203.082 55.1479 202.882 51.4407 203.544 47.837 203.754 46.6907 203.461 52.1408 204.236 51.264 206.411 48.8023 207.004 45.3239 208.388 42.3539 209.311 43.7246 209.746 45.593 211.156 46.4662 211.963 46.9656 213.435 46.5886 213.925 45.7808 223.564 29.8703 214.383 39.1586 218.077 35.4999" stroke="#000000" stroke-width="1.14583" stroke-miterlimit="8" fill="none" fill-rule="evenodd"/><path d="M208.407 96.5001C207.528 66.3632 215.356 72.5429 198.781 75.0176 195.599 75.4927 192.364 75.4796 189.155 75.7106 188.926 73.8627 190.311 70.2908 188.468 70.1667 184.888 69.9263 182.19 73.7197 178.841 75.0176 176.195 76.0435 173.341 76.4036 170.591 77.0966 172.195 73.1697 173.519 69.1144 175.404 65.3159 175.839 64.4392 178.063 62.4632 177.466 63.2369 175.268 66.0852 172.738 74.4392 170.591 71.5527 166.537 66.1052 191.989 44.7941 164.402 70.8597 163.944 64.8539 162.729 58.8582 163.027 52.8422 163.654 40.2153 173.856 38.8552 152.714 50.0702 150.651 45.4503 147.632 41.1524 146.525 36.2106 145.961 33.6915 150.114 29.889 147.9 28.5878 145.485 27.168 126.646 36.8748 126.586 36.9036 127.732 33.4386 128.71 29.913 130.023 26.5088 130.323 25.7325 131.805 23.7049 131.399 24.4299 128.013 30.4659 121.085 42.4474 121.085 42.4474 119.022 41.2924 116.643 40.5824 114.897 38.9825 113.984 38.1458 113.598 36.7591 113.522 35.5176 113.363 32.9712 114.112 30.4444 114.209 27.8948 114.341 24.4324 114.209 20.9649 114.209 17.5" stroke="#000000" stroke-width="1.14583" stroke-miterlimit="8" fill="none" fill-rule="evenodd"/><path d="M109.5 63.5001C110.187 58.4301 110.563 53.3076 111.559 48.2902 111.721 47.4755 112.115 46.0986 112.932 46.2161 114.383 46.4248 115.192 48.0961 116.364 48.9816 117.025 49.4802 117.737 49.9034 118.424 50.3643 119.797 48.2902 121.074 46.149 122.542 44.1421 125.372 40.2741 126.756 36.6362 131.466 35.8458 134.409 35.3518 137.415 35.3849 140.389 35.1544 142.678 32.8499 144.797 30.3617 147.254 28.2408 150.764 25.2101 149.47 28.7431 152.745 24.784 154.33 22.8689 155.318 20.5081 156.864 18.5618 158.077 17.035 159.692 15.8751 160.982 14.4137 161.53 13.7927 161.803 12.9573 162.355 12.3396 163.87 10.644 165.559 9.11324 167.16 7.50007 170.445 14.1179 170.068 12.8288 172.652 20.6359 173.178 22.2276 173.335 23.9479 174.025 25.4754 174.498 26.5242 175.449 27.282 176.084 28.2408 176.71 29.1877 180.029 34.9798 181.575 36.5371 182.159 37.1247 182.948 37.4589 183.635 37.9198 185.694 37.6894 188.549 35.5743 189.812 37.2285 190.564 38.2127 190.499 46.4128 190.499 49.6729" stroke="#000000" stroke-width="1.14583" stroke-miterlimit="8" fill="none" fill-rule="evenodd"/></g></svg>