<svg class="alien alien-ship-1" width="330" height="152" xmlns="http://www.w3.org/2000/svg" xmlns:xlink="http://www.w3.org/1999/xlink" overflow="hidden"><defs><clipPath id="alien-ship-1-full-health"><rect x="-7" y="0" width="330" height="152"/></clipPath></defs><g clip-path="url(#alien-ship-1-full-health)" transform="translate(7 0)"><path class="alien-1-body" d="M-0.000345582 80.6219 75.041 77.7711 60.35 54.1219 126.312 65.8873 158 44 189.688 65.8873 255.65 54.1219 240.959 77.7711 316 80.6219 260.542 96.9999 316 113.378 240.959 116.229 255.65 139.878 189.688 128.113 158 150 126.312 128.113 60.35 139.878 75.041 116.229-0.000345582 113.378 55.4576 96.9999Z" stroke="#6C5E08" stroke-width="2.29167" stroke-miterlimit="8" fill="#BBA105" fill-rule="evenodd"/><rect x="94.9999" y="48.0001" width="126" height="38.9998" fill="#AFABAB"/><path d="M94.9999 48.5C94.9999 21.7142 123.206-6.17469e-15 158-1.23494e-14 192.794-2.46988e-14 221 21.7142 221 48.5 221 75.2858 192.794 96.9999 158 96.9999 123.206 96.9999 94.9999 75.2858 94.9999 48.5Z" fill="#AFABAB" fill-rule="evenodd"/><path d="M94.9999 85.4999C94.9999 74.7304 123.206 66 158 66 192.794 66 221 74.7304 221 85.4999 221 96.2694 192.794 105 158 105 123.206 105 94.9999 96.2694 94.9999 85.4999Z" fill="#AFABAB" fill-rule="evenodd"/></g></svg>