<svg id="medium-damage-player" class="player-ship-item player-ship-damage" width="360" height="240" xmlns="http://www.w3.org/2000/svg" xmlns:xlink="http://www.w3.org/1999/xlink" overflow="hidden"><defs><clipPath id="player-medium-damage"><rect x="-2" y="-4" width="360" height="240"/></clipPath></defs><g clip-path="url(#player-medium-damage)" transform="translate(2 4)"><path d="M312.5 231.5 101.5 116 312.5 0.499847Z" stroke="#000000" stroke-width="4.58333" stroke-miterlimit="8" stroke-opacity="0" fill="#000000" fill-rule="evenodd" fill-opacity="0"/><path d="M0 0 73.5629 0.000360892" stroke="#000000" stroke-width="2.29167" stroke-miterlimit="8" stroke-opacity="0" fill="none" fill-rule="evenodd" transform="matrix(-1 0 0 1 95.5629 77)"/><path d="M0 0 73.5629 0.000360892" stroke="#000000" stroke-width="2.29167" stroke-miterlimit="8" stroke-opacity="0" fill="none" fill-rule="evenodd" transform="matrix(-1 0 0 1 95.5629 138)"/><path d="M355.5 151.5 178 151.5C79.9693 151.5 0.499847 132.024 0.499847 108 0.499847 83.9757 79.9693 64.5001 178 64.5001L355.5 64.5001Z" stroke="#000000" stroke-width="4.58333" stroke-miterlimit="8" stroke-opacity="0" fill="#000000" fill-rule="evenodd" fill-opacity="0"/><path d="M85.539 131.814C70.7077 122.143 65.979 103.117 74.977 89.3176 79.3946 82.5428 86.5797 77.9865 94.8856 76.6929L96.4636 83.5395C83.3143 85.3059 75.0579 97.1646 78.0224 110.027 79.4976 116.427 83.6004 122.183 89.3671 125.944Z" stroke="#000000" stroke-width="4.58333" stroke-miterlimit="8" stroke-opacity="0" fill="#000000" fill-rule="evenodd" fill-opacity="0"/><path d="M171.5 129.5C185.89 117.799 162.336 137.334 178.368 122.519 182.099 119.072 185.849 115.588 190.044 112.745 195.117 109.308 193.174 111.295 196.225 107.16 196.683 108.324 197.209 109.462 197.599 110.651 197.897 111.561 197.618 112.765 198.286 113.443 198.953 114.122 200.117 113.909 201.033 114.142 203.093 113.211 205.198 112.374 207.214 111.349 212.046 108.893 216.868 105.87 220.951 102.274 235.789 89.2018 213.642 106.449 226.445 96.6887 227.361 98.0849 228.454 99.3763 229.192 100.877 232.098 106.784 230.244 107.754 235.374 110.651 236.199 111.117 237.205 111.116 238.121 111.349 242.471 109.022 246.936 106.906 251.17 104.368 268.197 94.1615 258.979 96.2965 269.028 94.5943 269.485 96.2233 270.074 97.8199 270.401 99.4811 270.992 102.482 270.004 106.081 271.775 108.557 272.626 109.747 274.522 107.626 275.896 107.16 279.101 104.833 282.375 102.602 285.511 100.179 295.396 92.5436 289.524 95.3364 296.5 92.5" stroke="#000000" stroke-width="1.14583" stroke-miterlimit="8" fill="none" fill-rule="evenodd"/><path d="M250.5 50.5C252.565 50.2752 254.624 49.9881 256.695 49.8256 260.361 49.5382 264.096 49.8316 267.708 49.1512 270.135 48.6938 272.297 47.3528 274.592 46.4535 272.416 45.1744 270.701 44.049 268.397 43.0815 267.73 42.8014 267.02 42.6319 266.332 42.407 266.791 41.283 266.649 39.6577 267.708 39.035 269.295 38.1025 271.384 38.6169 273.215 38.3606 276.202 37.9425 279.18 37.4613 282.163 37.0117 282.852 36.5621 284.228 36.4736 284.228 35.6629 284.228 34.7091 282.786 34.3725 282.163 33.6396 281.633 33.0169 281.245 32.2908 280.787 31.6164 282.393 30.0428 283.749 28.1788 285.605 26.8955 293.104 21.709 292.488 26.4427 292.488 21.5002" stroke="#000000" stroke-width="1.14583" stroke-miterlimit="8" fill="none" fill-rule="evenodd"/><path d="M254.513 178.359C254.154 176.948 260.842 177.338 263.126 179.064 264.843 180.362 263.318 183.347 263.844 185.412 264.053 186.234 264.929 186.753 265.279 187.528 267.294 191.982 254.872 179.769 254.513 178.359Z" stroke="#000000" stroke-width="1.14583" stroke-miterlimit="8" fill="none" fill-rule="evenodd"/><path d="M21.5002 115.095C22.0189 115.201 28.8329 116.634 29.0019 116.49 31.19 114.625 31.7298 111.376 33.0938 108.818 34.1008 95.4311 31.5705 99.0625 37.1856 103.239 38.4189 104.156 39.9136 104.634 41.2775 105.331 42.8688 102.076 44.5281 98.8557 46.0513 95.5669 46.5754 94.4356 46.1935 92.1576 47.4153 92.0797 50.7189 91.8684 53.823 93.7989 56.963 94.8694 58.6055 95.4292 60.8644 98.491 61.7368 96.9618 63.4548 93.9498 61.7368 89.9873 61.7368 86.5001" stroke="#000000" stroke-width="1.14583" stroke-miterlimit="8" fill="none" fill-rule="evenodd"/><path d="M126.5 77.4998C126.848 78.3837 128.857 84.0245 129.896 84.409 131.612 85.0436 133.541 84.0822 135.331 83.718 138.077 83.1595 140.756 82.2978 143.482 81.6453 144.606 81.3762 145.747 81.1847 146.879 80.9544 147.727 80.5232 151.107 78.0547 152.313 80.2635 153.199 81.8865 152.766 83.9483 152.992 85.7908 155.483 85.3302 158.742 82.5223 160.465 84.409 162.949 87.1302 161.084 91.8269 161.823 95.4635 162.447 98.5311 163.635 101.451 164.54 104.445 166.125 101.451 167.8 98.505 169.295 95.4635 173.396 87.1222 170.321 79.121 171.333 114.118 171.346 114.578 171.333 115.039 171.333 115.5" stroke="#000000" stroke-width="1.14583" stroke-miterlimit="8" fill="none" fill-rule="evenodd"/><path d="M290.5 198.5C290.273 195.281 290.017 192.065 289.818 188.845 289.562 184.709 290.553 180.32 289.135 176.431 288.657 175.119 286.406 175.971 285.042 175.741 284.587 172.983 283.84 170.257 283.678 167.465 283.091 157.387 300.103 164.566 264.575 163.328 262.755 162.868 260.984 162.12 259.117 161.948 240.89 160.273 243.479 166.995 241.379 158.5 238.645 160.573 236.842 161.736 234.556 164.707 234.115 165.281 234.531 166.48 233.874 166.776 232.199 167.528 230.248 167.388 228.416 167.465 224.781 167.619 221.139 167.465 217.5 167.465" stroke="#000000" stroke-width="1.14583" stroke-miterlimit="8" fill="none" fill-rule="evenodd"/><path d="M300.5 52.5001C300.037 49.8811 300.693 46.7495 299.112 44.643 286.194 27.4338 289.861 43.9324 288.01 32.5002 285.466 32.9764 282.411 32.2842 280.377 33.9287 278.652 35.3243 279.14 38.2722 278.296 40.3573 277.975 41.1496 277.371 41.7858 276.908 42.5001 275.058 41.5478 273.078 40.8241 271.357 39.643 270.268 38.8957 269.575 37.6625 268.582 36.7859 267.948 36.2272 267.194 35.8335 266.5 35.3573" stroke="#000000" stroke-width="1.14583" stroke-miterlimit="8" fill="none" fill-rule="evenodd"/><path d="M295.5 136.5C296.194 135.346 297.051 134.274 297.583 133.037 300.452 126.361 297.641 125.457 301.749 128.189 305.453 127.035 309.327 126.328 312.859 124.726 315.638 123.467 317.967 120.09 319.803 117.801 320.034 119.186 319.089 121.956 320.497 121.956 322.461 121.956 323.327 119.236 324.663 117.801 326.337 116.003 327.784 113.995 329.524 112.26 331.968 109.822 332.381 111.043 333.69 108.105 334.284 106.77 336.388 104.602 335.079 103.949 332.586 102.706 329.524 104.411 326.746 104.642 323.043 105.334 319.399 106.522 315.637 106.72L300.361 106.027C299.204 105.984 298.046 106.027 296.889 106.027" stroke="#000000" stroke-width="1.14583" stroke-miterlimit="8" fill="none" fill-rule="evenodd"/></g></svg>