<svg width="25" height="24" xmlns="http://www.w3.org/2000/svg" xmlns:xlink="http://www.w3.org/1999/xlink" overflow="hidden"><defs><clipPath id="red-laser"><rect x="1023" y="735" width="25" height="24"/></clipPath></defs><g clip-path="url(#red-laser)" transform="translate(-1023 -735)"><path d="M1023 747C1023 740.373 1028.6 735 1035.5 735 1042.4 735 1048 740.373 1048 747 1048 753.627 1042.4 759 1035.5 759 1028.6 759 1023 753.627 1023 747Z" fill="#FF8B8B" fill-rule="evenodd" fill-opacity="0.74902"/><path d="M1027 747C1027 742.582 1030.81 739 1035.5 739 1040.19 739 1044 742.582 1044 747 1044 751.418 1040.19 755 1035.5 755 1030.81 755 1027 751.418 1027 747Z" fill="#FF0000" fill-rule="evenodd"/></g></svg>